<?xml version="1.0" encoding="utf-8"?>
<svg xmlns="http://www.w3.org/2000/svg" xmlns:xlink="http://www.w3.org/1999/xlink" version= "1.1" width="1920px" height="1300px" viewBox="-600 61 1920 1300">
<g id="layer1">
<g style="fill:rgb(201,73,123); fill-opacity:1.0; stroke-linejoin: miter">
<path d="M-600.001,59.66191L-600.26306,59.687836L-600.8171,1362.0581L1320.2627,1362.3119L1320.8167,59.941498L-600.001,59.66191 Z"/>
</g>
<g style="fill:rgb(0,0,0); fill-opacity:0.36078432; stroke-linejoin: miter">
<path d="M1250.3965,1191.01L1242.5519,1196.5968Q1186.7778,1213.4806,916.164,1223.6034Q643.67755,1233.718,274.4211,1231.8064Q-77.986145,1229.1342,-289.27362,1216.1691Q-356.97244,1211.9781,-400.79996,1207.036L-437.63577,1201.9552Q-467.99182,1196.711,-468.33313,1191.01Q-459.11792,1173.5144,-216.63095,1161.8969Q25.855919,1150.2794,391.03174,1149.8378Q756.2076,1150.2794,998.6946,1161.8969Q1241.1814,1173.5144,1250.3965,1191.01"/>
</g>
<g style="fill:rgb(162,151,151); fill-opacity:1.0; stroke-linejoin: miter">
<path d="M919.8874,1162.3126L980.5543,1162.3137L1041.2207,1162.3134Q1041.2207,1180.2043,1041.2207,1198.0957Q980.5542,1198.0957,919.8873,1198.0961Q919.8874,1180.2042,919.8874,1162.3126 Z"/>
</g>
<g style="fill:rgb(162,151,151); fill-opacity:1.0; stroke-linejoin: miter">
<path d="M369.6006,1142.4396L546.25806,1142.4403L722.91534,1142.4404Q722.91534,1165.7949,722.9153,1189.1489Q546.258,1189.1498,369.6006,1189.1498Q369.6006,1165.7949,369.6006,1142.4396 Z"/>
</g>
<g style="fill:rgb(162,151,151); fill-opacity:1.0; stroke-linejoin: miter">
<path d="M6.165865,1156.7722L78.26278,1156.7734L150.36,1156.774Q150.35999,1173.975,150.35999,1191.1764Q78.26277,1191.1768,6.1658554,1191.1771Q6.165859,1173.9749,6.165865,1156.7722 Z"/>
</g>
<g style="fill:rgb(139,199,240); fill-opacity:0.99607843; stroke-linejoin: miter">
<path d="M96.36167,550.4458L533.7964,550.44604L971.2316,550.4469Q971.2313,844.0603,971.2313,1137.6735Q533.796,1137.6736,96.36083,1137.6743Q96.36134,844.0602,96.36167,550.4458 Z"/>
</g>
<g style="fill:rgb(26,26,26); fill-opacity:1.0; stroke-linejoin: miter">
<path d="M116.67984,546.78186C99.84091,546.78186,86.28378,560.046,86.28379,576.5211L86.28345,1120.5387C86.28345,1136.2054,84.07431,1148.9678,98.3379,1150.1821L-1.5568314,1150.1825C-13.378981,1150.1821,-7.3329296,1159.3939,-7.3329277,1170.8359L-7.3329353,1184.6044C-7.3329344,1196.0463,2.1843376,1205.2583,14.006351,1205.2583L1048.9583,1205.2599C1060.78,1205.2585,1070.2981,1196.047,1070.2981,1184.6046L1070.2981,1170.8369C1070.2981,1159.3945,1076.3436,1150.1825,1064.5216,1150.1825L964.6269,1150.1826C978.8906,1148.9685,976.68164,1136.2059,976.68164,1120.5396L976.68176,576.5211C976.68176,560.0466,963.12494,546.78186,946.2854,546.78186L116.676254,546.7821 Z M379.28793,553.99396C383.60928,553.99396,387.11227,557.4218,387.11234,561.6497C387.11234,565.8773,383.60934,569.3049,379.28796,569.3049C374.96667,569.3049,371.46375,565.8776,371.46375,561.6497C371.4637,557.4218,374.96664,553.99396,379.28793,553.99396 Z M115.939926,576.5782L947.0295,576.5792L947.0289,1120.4758L115.93918,1120.4763L115.939804,576.5782 Z M396.37332,1150.279L666.59454,1150.2794C666.19104,1156.038,662.1848,1160.5333,657.26556,1160.5333L405.7025,1160.5337C400.7826,1160.5333,396.7767,1156.038,396.37347,1150.279 Z M945.0327,1166.57C951.39667,1166.57,956.556,1171.564,956.556,1177.7231C956.556,1183.8823,951.3963,1188.8759,945.0324,1188.8759C938.66876,1188.8759,933.5095,1183.8823,933.5095,1177.7231C933.5095,1171.564,938.6688,1166.57,945.0327,1166.57 Z M981.3761,1166.5701C987.7396,1166.5701,992.89874,1171.5641,992.8989,1177.7233C992.8989,1183.8824,987.74,1188.876,981.3757,1188.876C975.012,1188.876,969.8532,1183.8824,969.8532,1177.7233C969.8532,1171.5641,975.0121,1166.5701,981.3761,1166.5701 Z M1017.72,1166.5701C1024.0836,1166.5701,1029.2423,1171.5641,1029.2423,1177.7233C1029.2423,1183.8824,1024.0836,1188.876,1017.72,1188.876C1011.35583,1188.876,1006.1964,1183.8824,1006.1964,1177.7233C1006.1964,1171.5641,1011.35583,1166.5701,1017.72,1166.5701 Z M38.654224,1173.9567L99.11675,1173.957C102.07219,1173.9567,104.45155,1175.6361,104.45155,1177.7228C104.45155,1179.8091,102.0722,1181.4891,99.11676,1181.4891L38.654224,1181.4893C35.698673,1181.4891,33.31932,1179.8091,33.31932,1177.7228C33.31932,1175.6361,35.698673,1173.9567,38.654224,1173.9567 Z"/>
</g>
<g style="fill:rgb(0,0,0); fill-opacity:1.0; stroke-linejoin: miter">
<path d="M-91.15893,1065.9583L-110.718864,1034.735L-26.001516,981.47815L-65.37161,791.6925L-29.336807,784.2071L12.77746,986.5779C14.369358,994.0314,11.045614,1001.87476,4.540001,1005.9324L-91.15893,1065.9583 Z"/>
</g>
<g>
<g style="fill:rgb(0,0,0); fill-opacity:1.0; stroke-linejoin: miter">
</g>
</g>
<g style="fill:rgb(0,0,0); fill-opacity:1.0; stroke-linejoin: miter">
<path d="M-218.0196,1187.7616L-180.98454,1189.642L-175.72076,1089.0641L10.394403,1030.5977L-0.69739914,995.2545L-199.22,1057.4808C-206.55174,1059.7367,-211.81557,1066.5045,-212.19177,1074.2124L-218.0196,1187.7616 Z"/>
</g>
<g style="fill:rgb(0,0,0); fill-opacity:1.0; stroke-linejoin: miter">
<path d="M-307.50504,1206.1853L-307.50693,1206.1863L-79.65518,1206.1854L-79.65689,1206.1864C-79.65526,1186.8219,-95.25852,1171.2184,-114.62216,1171.2181L-272.53784,1171.2179C-291.9014,1171.2177,-307.50504,1186.8215,-307.50504,1206.1853 Z"/>
</g>
<g style="fill:rgb(172,179,186); fill-opacity:1.0; stroke-linejoin: miter">
<path d="M-25.559978,821.7571L-25.559978,821.75903C-1.2996941,808.44775,7.461008,777.95386,-5.8484793,753.6935L-53.021343,667.77155L-140.79643,715.9551L-93.62361,801.87726C-80.31421,826.13745,-49.820267,835.0666,-25.559978,821.7571 Z"/>
</g>
<g style="fill:rgb(50,74,94); fill-opacity:1.0; stroke-linejoin: miter">
<path d="M-250.09512,759.5405L-350.9154,764.93604C-351.8936,765.02496,-352.80917,764.20874,-352.89816,763.2304L-357.70764,672.0468C-357.79648,671.0684,-356.98044,670.15283,-356.00198,670.0638L-255.18175,664.6684C-254.20354,664.5796,-253.28798,665.39575,-253.19885,666.37396L-248.38959,757.5577C-248.3005,758.5358,-249.11671,759.4516,-250.09512,759.5405 Z"/>
</g>
<g style="fill:rgb(206,213,224); fill-opacity:1.0; stroke-linejoin: miter">
<path d="M-294.90402,799.2708L36.02271,781.86017C40.08778,781.5775,43.205776,778.2188,42.92325,774.15375L35.120285,624.84015C34.837727,620.775,31.478878,617.657,27.413876,617.9395L-303.51266,635.3507C-307.57776,635.6332,-310.69574,638.9918,-310.4133,643.0571L-302.6104,792.3704C-302.32782,796.43536,-298.96915,799.5533,-294.90402,799.2708 Z"/>
</g>
<g style="fill:rgb(230,233,238); fill-opacity:1.0; stroke-linejoin: miter">
<path d="M45.275665,661.54614L-328.87015,681.29095C-379.16776,683.9492,-424.60037,651.7277,-438.90976,603.47577L-445.54922,581.1887L39.733555,555.60333C51.25379,554.9911,61.021553,563.8221,61.48211,575.2691L64.862816,639.57227C65.62697,651.16595,56.795937,660.9336,45.275665,661.54614 Z"/>
</g>
<g style="fill:rgb(230,233,238); fill-opacity:1.0; stroke-linejoin: miter">
<path d="M-68.857834,780.6494C-68.857834,792.0941,-59.58023,801.3717,-48.135498,801.3717C-36.690796,801.3717,-27.413164,792.0942,-27.413168,780.64954C-27.413168,769.20465,-36.690815,759.92706,-48.135513,759.92706C-59.58025,759.92706,-68.857834,769.2046,-68.857834,780.6494 Z"/>
</g>
<g style="fill:rgb(230,233,238); fill-opacity:1.0; stroke-linejoin: miter">
<path d="M-269.29565,744.285C-272.734,751.4074,-269.74738,759.96875,-262.62494,763.40704C-255.5025,766.8453,-246.94142,763.85864,-243.50313,756.7362C-240.06491,749.6138,-243.05138,741.0525,-250.17387,737.61426C-257.29626,734.1759,-265.85745,737.1626,-269.29565,744.285 Z"/>
</g>
<g style="fill:rgb(172,179,186); fill-opacity:0.99607843; stroke-linejoin: miter">
<path d="M-63.157166,999.5879L-63.115143,993.3451Q-61.23342,974.37,-47.125923,962.1846Q-32.915405,950.00195,-12.575487,950.86975Q6.8950443,952.6411,19.35648,966.34564Q31.814774,980.1507,30.857555,999.97Q28.9758,1018.9453,14.868324,1031.1309Q0.65779305,1043.3136,-19.68213,1042.4456Q-39.15271,1040.6742,-51.614105,1026.9696Q-55.609417,1022.5376,-58.350452,1017.18823L-60.7185,1011.661Q-62.74328,1005.9298,-63.157166,999.5879"/>
</g>
<g style="fill:rgb(230,233,238); fill-opacity:1.0; stroke-linejoin: miter">
<path d="M-32.51476,995.0155C-33.158276,1004.4929,-25.997246,1012.69727,-16.520012,1013.34045C-7.0428267,1013.98413,1.1615314,1006.82324,1.8050365,997.3457C2.4485474,987.8685,-4.7125034,979.66406,-14.189684,979.02045C-23.666916,978.3772,-31.87125,985.5382,-32.51476,995.0155 Z"/>
</g>
<g style="fill:rgb(0,0,0); fill-opacity:1.0; stroke-linejoin: miter">
<path d="M306.32367,720.09796L554.8201,720.09845L803.3166,720.099Q803.3166,884.50214,803.3166,1048.9054Q554.8201,1048.9059,306.3237,1048.9064Q306.3237,884.50214,306.32367,720.09796"/>
</g>
<g style="fill:rgb(255,0,0); fill-opacity:0.99607843; stroke-linejoin: miter">
<path d="M362.08267,751.2358L361.89886,753.96735Q360.59238,762.2224,354.25327,767.1718Q347.87024,772.11725,339.22046,771.18256Q330.96533,769.87604,326.01593,763.53687Q324.43008,761.48785,323.40344,759.0714L322.54056,756.5872Q321.82947,754.02313,321.82147,751.2358Q322.03732,742.6815,327.7176,737.0012Q333.39783,731.32104,341.95203,731.10516Q350.5063,731.32104,356.18652,737.0012Q361.86676,742.6815,362.08267,751.2358"/>
</g>
<g style="fill:rgb(99,112,121); fill-opacity:0.99607843; stroke-linejoin: miter">
<path d="M336.9671,992.9081L549.9034,992.90857L762.83966,992.90906Q762.83966,1001.49646,762.83966,1010.0836Q549.9034,1010.0842,336.9671,1010.0847Q336.9671,1001.49634,336.9671,992.9081"/>
</g>
<g style="fill:rgb(107,195,255); fill-opacity:0.99607843; stroke-linejoin: miter">
<path d="M397.14493,1000.17163L396.97867,1002.64343Q395.79642,1010.1133,390.06024,1014.5919Q384.28442,1019.0669,376.45737,1018.22107Q368.9875,1017.0388,364.50885,1011.30273Q363.07385,1009.4485,362.14484,1007.26196L361.364,1005.01404Q360.7206,1002.69385,360.71335,1000.17163Q360.9087,992.431,366.0486,987.29114Q371.18857,982.15125,378.92914,981.9559Q386.6697,982.15125,391.80966,987.29114Q396.9496,992.431,397.14493,1000.17163"/>
</g>
<g style="fill:rgb(107,195,255); fill-opacity:0.99607843; stroke-linejoin: miter">
<path d="M336.92374,998.33276L477.03442,998.33325L617.145,998.33374Q617.145,1001.1283,617.145,1003.923Q477.03442,1003.92346,336.92374,1003.92395Q336.92374,1001.1283,336.92374,998.33276"/>
</g>
</g>
</svg>